<svg xmlns="http://www.w3.org/2000/svg" width="24" height="24" viewBox="0 0 24 24">
  <path d="M12 2c-5.27 0-9.89 3.62-11 8.96 0.22 2.6 1.17 5.02 2.72 7.04L4.27 14.85 5.7 13.42 7.12 14.84 8.54 13.41l-1.41-1.42 1.43-1.43 1.42 1.42 1.42-1.42-1.42-1.42 1.41-1.41 1.43 1.43 1.42-1.42-1.42-1.42 1.42-1.42 1.41 1.42 1.43-1.43-1.42-1.42 1.42-1.42 1.42 1.42 1.42-1.42-1.42-1.42 1.42-1.42 1.41 1.42 1.43-1.43 1.42 1.42-1.42 1.42 1.42 1.42 1.42-1.42 1.42 1.42-1.42-1.42-1.42 1.42-1.42C21.89 8.38 17.27 2 12 2zm0 16V6c2.39 0 4.43 1.73 4.9 4.18l-1.98-1.98-2.12 2.12 4.55 4.55C18.74 15.98 17 14 12 14z"/>
</svg>
